# xmcd
#
# Track frame offsets: 
#        150
#        12535
#        23398
#        33388
#        45198
#        54085
#        63390
#        73088
#        85278
#        94695
#        106655
#        118193
#        128963
#        138670
#        147970
#        158853
#        169843
#        180118
#        192075
#        201950
#        213315
#        224363
#        234223
#        246835
#        257773
#        268298
#
# Disc length: 3736 seconds
#
# Revision: 3
# Processed by: cddbd v1.5.2PL0 Copyright (c) Steve Scherf et al.
# Submitted via: ExactAudioCopyFreeDBPlugin 1.0
#
DISCID=6c0e961a
DTITLE=Various Artist - The Specialty Story [box set]
DYEAR=1994
DGENRE=Rhythm and Blues
TTITLE0=Tony Allen and The Champs - Nite Owl
TTITLE1=Little Richard - Tutti Frutti
TTITLE2=Ernest Kador - Eternity
TTITLE3=Li'l Millet and His Creoles - Rich Woman
TTITLE4=Clifton Chenier - Squeeze Box Boogie
TTITLE5=The Soul Stirrers - Touch the Hem of His Garment (ft Sam Cooke
TTITLE5=)
TTITLE6=Little Richard - Long Tall Sally
TTITLE7=Little Richard - Slippin' and Slidin' (Peepin' and Hidin')
TTITLE8=Arthur Lee Maye and The Crowns - Oh-Rooba-Lee
TTITLE9=Arthur Lee Maye and The Crowns - Gloria
TTITLE10=Bob Landers with Willie Joe and His Unitar - Cherokee Dance
TTITLE11=Little Richard - Rip it Up
TTITLE12=Little Richard - Ready Teddy
TTITLE13=Vernon Green and The Phantoms - Sweet Breeze
TTITLE14=Roy Montrell - (Every Time I Hear That) Mellow Saxaphone
TTITLE15=Little Richard - She's Got It
TTITLE16=Little Richard - Heeby Jeebies
TTITLE17=Wynona Carr - Should I Ever Love Again
TTITLE18=Big Boy Myles and The Shaw-Wees - Just to Hold My Hand
TTITLE19=Little Richard - The Girl Can't Help It
TTITLE20=Little Richard - All Around the World
TTITLE21=Art Neville - Oooh-Whee Baby
TTITLE22=Larry Williams - Just Because
TTITLE23=Little Richard - Lucille
TTITLE24=Little Richard - Send Me Some Lovin'
TTITLE25=Eugene Church - Open Up Your Heart
EXTD=
EXTT0=
EXTT1=
EXTT2=
EXTT3=
EXTT4=
EXTT5=
EXTT6=
EXTT7=
EXTT8=
EXTT9=
EXTT10=
EXTT11=
EXTT12=
EXTT13=
EXTT14=
EXTT15=
EXTT16=
EXTT17=
EXTT18=
EXTT19=
EXTT20=
EXTT21=
EXTT22=
EXTT23=
EXTT24=
EXTT25=
PLAYORDER=
